# xmcd
#
# Track frame offsets:
#	150
#	11595
#	20790
#	32440
#	44817
#	56860
#	67367
#	77422
#	89510
#	100072
#	112825
#	122347
#	133750
#	144332
#	155347
#	164917
#	176970
#	187750
#	199005
#	210135
#
# Disc length: 2946 seconds
#
# Revision: 0
# Processed by: cddbd v1.5.2PL0 Copyright (c) Steve Scherf et al.
# Submitted via: EZCDAudioConverter 8.0.2.1
#
DISCID=150b8014
DTITLE=Various Artist - Stars Of Country Vol 1
DYEAR=1995
DGENRE=Country
TTITLE0=Mitchell Torok - Caribbean
TTITLE1=Sleepy Labeef - Cool Water
TTITLE2=Leroy Van Dyke - Moonlight Gambler
TTITLE3=Jimmie Davis - Worried Mind
TTITLE4=Bonnie Guitar - Dark Moon
TTITLE5=Webb Pierce - In The Jailhouse Now
TTITLE6=Orion - Before The Next Teardrop Falls
TTITLE7=Ned Miller - Cry Of The Wild Goose
TTITLE8=Hank Locklin - Night Life Queen
TTITLE9=Webb Pierce and Carol Channing - Back Street Afair
TTITLE10=Ed Bruce  - King Of Fools
TTITLE11=Johnny Cash - Wide Open Road
TTITLE12=Carl McVoy - Born To Lose
TTITLE13=Dave Dudley - Truck Driving Son Of A Gun
TTITLE14=Jeannie C Riley - Mr Harper
TTITLE15=Rex Allen Jnr - I Honky Tonked All The Way Home
TTITLE16=Conway Twitty - Born To Sing The Blues
TTITLE17=Sleepy Labeef - High Noon
TTITLE18=Patti Page - Go On Home
TTITLE19=Johnny Cash - Cry Cry Cry
EXTD=
EXTT0=
EXTT1=
EXTT2=
EXTT3=
EXTT4=
EXTT5=
EXTT6=
EXTT7=
EXTT8=
EXTT9=
EXTT10=
EXTT11=
EXTT12=
EXTT13=
EXTT14=
EXTT15=
EXTT16=
EXTT17=
EXTT18=
EXTT19=
PLAYORDER=
